<svg width="1030" height="477" viewBox="0 0 1030 477" fill="none" xmlns="http://www.w3.org/2000/svg">
<path d="M164.088 359.5H41.0013L119.377 435.5H223.001L164.088 359.5Z" fill="url(#paint0_linear_25_44)"/>
<path d="M41.0013 359.5L176.501 41H254.501V85H307.001V134H349.501V85H427.501V41H505.501V359.5H387.001L409.001 169.5H373.001L364.501 215.5H239.501L254.501 158H227.501L164.501 359.5H41.0013Z" fill="url(#paint1_linear_25_44)"/>
<path d="M419.863 435.5L387.001 359.5H506.001V435.5H419.863Z" fill="url(#paint2_linear_25_44)"/>
<path d="M561.001 97.5V41H873.501V71H890.001V114.5H840.001V169.5H790.001V221.5H721.501V251.5H940.501L988.501 366.5H561.001V251.5H628.001V184.5H693.001V139.5H741.501V97.5H561.001Z" fill="url(#paint3_linear_25_44)"/>
<path d="M561.501 432V368H987.001L895.501 432H561.501Z" fill="url(#paint4_linear_25_44)"/>
<path fill-rule="evenodd" clip-rule="evenodd" d="M12.4595 388.934C0.286982 377.13 -3.3641 359.052 3.27365 343.449L138.774 24.9494C145.21 9.82089 160.061 0 176.501 0H254.501C277.145 0 295.501 18.3563 295.501 41V44H307.001C314.781 44 322.054 46.1667 328.251 49.9296C334.448 46.1667 341.722 44 349.501 44H386.501V41C386.501 18.3563 404.858 0 427.501 0H505.501C516.204 0 525.95 4.10125 533.251 10.818C540.553 4.10125 550.298 0 561.001 0H873.501C895.151 0 912.882 16.7802 914.396 38.0441C924.471 45.5142 931.001 57.4945 931.001 71V114.5C931.001 137.144 912.645 155.5 890.001 155.5H881.001V169.5C881.001 192.144 862.645 210.5 840.001 210.5H940.501C957.044 210.5 971.966 220.441 978.338 235.707L1026.34 350.707C1031.62 363.362 1030.23 377.82 1022.62 389.232C1020.92 391.795 1018.95 394.128 1016.76 396.205C1014.89 398.181 1012.8 399.991 1010.5 401.597L919.001 465.597C912.112 470.416 903.908 473 895.501 473H561.501C551.699 473 542.701 469.56 535.647 463.822C528.182 471.634 517.66 476.5 506.001 476.5H419.863C403.51 476.5 388.721 466.782 382.231 451.772L349.369 375.772C346.513 369.169 345.446 361.931 346.273 354.784L357.654 256.5H239.662L209.903 351.681L255.406 410.381C264.992 422.748 266.704 439.493 259.818 453.543C252.932 467.594 238.649 476.5 223.001 476.5H119.377C108.722 476.5 98.4848 472.352 90.8352 464.934L12.4595 388.934ZM164.088 359.5H164.501L227.501 158H254.501L239.501 215.5H364.501L373.001 169.5H409.001L387.001 359.5L419.863 435.5H506.001V359.5H505.501V41H427.501V85H349.501V134H307.001V85H254.501V41H176.501L41.0013 359.5L119.377 435.5H223.001L164.088 359.5ZM561.501 432H895.501L987.001 368H561.501V432ZM988.501 366.5L940.501 251.5H721.501V221.5H790.001V169.5H840.001V114.5H890.001V71H873.501V41H561.001V97.5H741.501V139.5H693.001V184.5H628.001V251.5H561.001V366.5H988.501ZM546.501 213.138C551.009 211.433 555.896 210.5 561.001 210.5H587.001V184.5C587.001 161.856 605.358 143.5 628.001 143.5H652.001V139.5C652.001 139.166 652.005 138.832 652.013 138.5H561.001C555.896 138.5 551.009 137.567 546.501 135.862V213.138Z" fill="black"/>
<path d="M303.465 240.456L261.904 446.651L197.056 359.163L216.969 251.008L303.465 240.456Z" fill="black"/>
<defs>
<linearGradient id="paint0_linear_25_44" x1="-113.067" y1="-506.281" x2="-113.067" y2="1008.31" gradientUnits="userSpaceOnUse">
<stop stop-color="#793B0D"/>
<stop offset="1" stop-color="#361A06"/>
</linearGradient>
<linearGradient id="paint1_linear_25_44" x1="514.751" y1="0" x2="514.751" y2="476.5" gradientUnits="userSpaceOnUse">
<stop stop-color="#EABF34"/>
<stop offset="1" stop-color="#F88F1F"/>
</linearGradient>
<linearGradient id="paint2_linear_25_44" x1="514.751" y1="0" x2="514.751" y2="476.5" gradientUnits="userSpaceOnUse">
<stop stop-color="#793B0D"/>
<stop offset="1" stop-color="#361A06"/>
</linearGradient>
<linearGradient id="paint3_linear_25_44" x1="514.751" y1="0" x2="514.751" y2="476.5" gradientUnits="userSpaceOnUse">
<stop stop-color="#EBBF34"/>
<stop offset="1" stop-color="#F99020"/>
</linearGradient>
<linearGradient id="paint4_linear_25_44" x1="748.63" y1="382.891" x2="747.287" y2="482.536" gradientUnits="userSpaceOnUse">
<stop stop-color="#793B0D"/>
<stop offset="1" stop-color="#371B06"/>
</linearGradient>
</defs>
</svg>
